<?xml version="1.0" encoding="UTF-8"?>
<svg width="200" height="200" viewBox="0 0 1024 1024" preserveAspectRatio="xMidYMid meet"
     xmlns="http://www.w3.org/2000/svg" role="img" aria-label="Loading">
  <defs>
    <linearGradient id="gold" x1="0%" y1="0%" x2="100%" y2="100%">
      <stop offset="0%" stop-color="#F4D06F"/>
      <stop offset="100%" stop-color="#FFE79A"/>
    </linearGradient>
  </defs>

  <!-- Centered within viewport via preserveAspectRatio, transparent background -->
  <path d="M255.279 282.737C197.627 288.979 107.95 308.364 100.038 316.295C87.1447 329.222 107.193 447.196 131.021 498.592C172.926 588.983 250.433 640.524 344.452 640.524C417.74 640.524 483.858 676.01 491.963 719.691C494.694 734.392 501.539 742 512.036 742C522.534 742 529.379 734.392 532.11 719.691C536.049 698.457 558.422 674.709 589.586 658.679C609.164 648.605 634.96 643.405 679.62 640.524C755.571 635.625 792.394 621.006 837.482 577.857C861.226 555.133 877.914 531.261 893.378 497.9C917.036 446.845 936.827 329.121 923.924 316.184C918.146 310.394 872.173 298.779 817.993 289.422C784.196 283.585 766.853 282.528 705.757 282.561C635.646 282.601 632.675 282.857 605.89 291.089C569.258 302.346 551.014 312.512 529.717 333.53L512.036 350.978L494.356 333.53C472.917 312.374 454.544 302.192 418.183 291.319C392.833 283.736 385.546 282.995 329.078 282.236C295.253 281.78 262.044 282.005 255.279 282.737ZM289.103 319.551C256.641 322.054 219.871 327.254 179.175 335.105L136.894 343.263V353.112C136.894 379.745 153.708 454.416 165.925 482.042C190.865 538.442 239.997 582.575 292.56 595.797C302.498 598.297 330.692 601.652 355.215 603.257C423.515 607.722 468.729 625.428 500.456 660.139L512.036 672.809L523.617 660.139C555.344 625.428 600.558 607.722 668.858 603.257C693.381 601.652 721.575 598.297 731.513 595.797C784.076 582.575 833.208 538.442 858.148 482.042C870.365 454.416 887.179 379.745 887.179 353.112V343.263L844.898 335.123C780.131 322.657 754.458 319.905 702.682 319.871C648.539 319.837 620.76 324.533 590.044 338.905C554.363 355.606 536.648 381.218 531.802 423.118C529.459 443.374 524.659 449.871 512.036 449.871C499.414 449.871 494.614 443.374 492.271 423.118C486.013 369.022 454.686 338.081 393.362 325.434C370.722 320.766 314.515 317.592 289.103 319.551ZM281.911 388.604C254.959 392.1 232.804 399.976 228.786 407.488C224.659 415.197 227.07 431.796 235.633 454.69C243.493 475.698 269.98 503.995 292.212 515.136C323.878 531 338.896 534.278 380.346 534.358L419.315 534.435L421.858 551.237C423.946 565.031 425.917 568.888 432.857 572.762C440.458 577.009 442.168 577.009 449.769 572.768C457.435 568.494 458.311 566.209 459.157 548.285C460.377 522.442 452.699 488.841 439.582 462.627C419.798 423.075 380.263 394.997 335.228 388.515C311.151 385.049 309.281 385.052 281.911 388.604ZM686.247 388.555C644.256 394.96 604.38 424.066 585.115 462.368C566.072 500.225 558.25 557.587 570.46 569.798C584.457 583.795 604.284 570.585 604.284 547.261V533.669L631.479 535.219C701.363 539.204 761.555 510.16 785.903 460.702C797.95 436.227 801.12 410.489 792.966 403.343C780.014 391.99 719.081 383.546 686.247 388.555ZM281.659 427.789C275.875 428.939 270.663 431.341 270.076 433.118C268.148 438.97 288.012 465.259 301.243 474.361C322.811 489.201 347.945 495.997 381.253 495.997C397.375 495.997 410.551 494.961 410.536 493.691C410.517 492.421 406.434 484.284 401.456 475.606C390.232 456.037 371.254 439.468 352.549 432.909C336.719 427.359 297.898 424.554 281.659 427.789ZM684.015 429.268C654.827 437.568 632.214 456.049 618.543 482.774C615.776 488.189 613.509 493.377 613.509 494.306C613.509 495.237 626.51 495.997 642.398 495.997C677.142 495.997 705.422 488.278 724.779 473.512C740.35 461.636 757.506 435.815 752.89 431.2C747.835 426.144 699.749 424.794 684.015 429.268Z" fill="none" stroke="url(#gold)" stroke-width="12"
        stroke-linecap="round" stroke-linejoin="round" stroke-dasharray="1200 2400">
    <animate attributeName="stroke-dashoffset" values="0; -3600" dur="2.2s" repeatCount="indefinite"/>
  </path>
</svg>
